<svg xmlns="http://www.w3.org/2000/svg" width="256" height="256" viewBox="0 0 100 100"><rect width="100" height="100" rx="20" fill="#4a3c96"></rect><path d="M5.20 55.64L5.20 55.64Q4.94 55.71 4.39 55.78Q3.84 55.86 3.26 55.86L3.26 55.86Q1.99 55.86 1.50 55.42Q1.00 54.99 1.00 53.86L1.00 53.86L1.00 41.07Q1.29 41.02 1.84 40.94Q2.40 40.86 2.95 40.86L2.95 40.86Q4.15 40.86 4.68 41.26Q5.20 41.67 5.20 42.85L5.20 42.85L5.20 46.74L9.81 46.74L9.81 41.07Q10.10 41.02 10.65 40.94Q11.20 40.86 11.76 40.86L11.76 40.86Q12.96 40.86 13.48 41.29Q14.01 41.72 14.01 42.90L14.01 42.90L14.01 55.64Q13.75 55.71 13.20 55.78Q12.64 55.86 12.07 55.86L12.07 55.86Q10.80 55.86 10.30 55.42Q9.81 54.99 9.81 53.86L9.81 53.86L9.81 50.05L5.20 50.05L5.20 55.64ZM26.30 50.53L20.32 51.44Q20.66 52.30 21.45 52.65Q22.24 53 23.23 53L23.23 53Q24.24 53 25.15 52.75Q26.06 52.50 26.61 52.16L26.61 52.16Q27.00 52.40 27.26 52.83Q27.52 53.26 27.52 53.74L27.52 53.74Q27.52 54.34 27.19 54.78Q26.85 55.21 26.24 55.50Q25.63 55.78 24.79 55.92Q23.95 56.05 22.94 56.05L22.94 56.05Q21.52 56.05 20.31 55.65Q19.10 55.26 18.21 54.46Q17.32 53.67 16.82 52.47Q16.32 51.27 16.32 49.66L16.32 49.66Q16.32 48.08 16.83 46.94Q17.35 45.80 18.20 45.07Q19.05 44.34 20.13 43.99Q21.21 43.64 22.34 43.64L22.34 43.64Q23.61 43.64 24.66 44.02Q25.70 44.41 26.46 45.08Q27.21 45.75 27.62 46.69Q28.03 47.62 28.03 48.73L28.03 48.73Q28.03 49.54 27.57 49.98Q27.12 50.41 26.30 50.53L26.30 50.53ZM22.36 46.62L22.36 46.62Q21.45 46.62 20.84 47.17Q20.23 47.72 20.11 48.73L20.11 48.73L24.19 48.06Q24.16 47.82 24.04 47.56Q23.92 47.31 23.71 47.10Q23.49 46.88 23.16 46.75Q22.82 46.62 22.36 46.62ZM32.37 55.86L32.37 55.86Q31.17 55.86 30.64 55.46Q30.12 55.06 30.12 53.94L30.12 53.94L30.12 40.02Q30.38 39.94 30.87 39.87Q31.36 39.80 31.94 39.80L31.94 39.80Q33.14 39.80 33.67 40.20Q34.20 40.59 34.20 41.72L34.20 41.72L34.20 55.64Q33.93 55.71 33.44 55.78Q32.95 55.86 32.37 55.86ZM39.19 55.86L39.19 55.86Q37.99 55.86 37.46 55.46Q36.93 55.06 36.93 53.94L36.93 53.94L36.93 40.02Q37.20 39.94 37.69 39.87Q38.18 39.80 38.76 39.80L38.76 39.80Q39.96 39.80 40.48 40.20Q41.01 40.59 41.01 41.72L41.01 41.72L41.01 55.64Q40.75 55.71 40.26 55.78Q39.76 55.86 39.19 55.86ZM55.70 49.83L55.70 49.83Q55.70 51.27 55.26 52.42Q54.81 53.58 53.98 54.38Q53.16 55.18 52.00 55.62Q50.85 56.05 49.41 56.05L49.41 56.05Q47.97 56.05 46.82 55.63Q45.67 55.21 44.84 54.40Q44.01 53.60 43.57 52.45Q43.12 51.30 43.12 49.83L43.12 49.83Q43.12 48.42 43.58 47.26Q44.04 46.11 44.86 45.31Q45.69 44.50 46.84 44.07Q48.00 43.64 49.41 43.64L49.41 43.64Q50.83 43.64 51.98 44.08Q53.13 44.53 53.96 45.33Q54.79 46.14 55.24 47.29Q55.70 48.44 55.70 49.83ZM49.41 46.83L49.41 46.83Q48.40 46.83 47.85 47.61Q47.30 48.39 47.30 49.83L47.30 49.83Q47.30 51.34 47.85 52.10Q48.40 52.86 49.41 52.86L49.41 52.86Q50.42 52.86 50.97 52.09Q51.52 51.32 51.52 49.83L51.52 49.83Q51.52 48.39 50.97 47.61Q50.42 46.83 49.41 46.83ZM71.18 48.39L71.18 53.34Q71.18 54.08 70.92 54.44Q70.65 54.80 70.08 55.14L70.08 55.14Q69.74 55.33 69.24 55.51Q68.73 55.69 68.13 55.82Q67.53 55.95 66.87 56.02Q66.21 56.10 65.56 56.10L65.56 56.10Q63.84 56.10 62.32 55.65Q60.81 55.21 59.70 54.27Q58.58 53.34 57.93 51.88Q57.28 50.43 57.28 48.42L57.28 48.42Q57.28 46.52 57.93 45.08Q58.58 43.64 59.71 42.66Q60.84 41.67 62.35 41.17Q63.86 40.66 65.61 40.66L65.61 40.66Q67.89 40.66 69.22 41.38Q70.56 42.10 70.56 43.28L70.56 43.28Q70.56 43.90 70.24 44.36Q69.93 44.82 69.52 45.08L69.52 45.08Q68.92 44.72 68.01 44.38Q67.10 44.05 65.92 44.05L65.92 44.05Q64.96 44.05 64.17 44.36Q63.38 44.67 62.80 45.24Q62.23 45.80 61.92 46.60Q61.60 47.41 61.60 48.39L61.60 48.39Q61.60 49.47 61.90 50.29Q62.20 51.10 62.74 51.64Q63.28 52.18 64.02 52.46Q64.75 52.74 65.64 52.74L65.64 52.74Q66.16 52.74 66.56 52.64Q66.96 52.54 67.17 52.42L67.17 52.42L67.17 50.12L64.60 50.12Q64.46 49.86 64.33 49.42Q64.20 48.99 64.20 48.51L64.20 48.51Q64.20 47.65 64.59 47.26Q64.99 46.88 65.61 46.88L65.61 46.88L69.67 46.88Q70.39 46.88 70.78 47.28Q71.18 47.67 71.18 48.39L71.18 48.39ZM73.63 51.03L73.63 44.05Q73.89 43.98 74.38 43.90Q74.88 43.83 75.45 43.83L75.45 43.83Q76.65 43.83 77.18 44.23Q77.71 44.62 77.71 45.75L77.71 45.75L77.71 51.03Q77.71 52.02 78.19 52.44Q78.67 52.86 79.58 52.86L79.58 52.86Q80.13 52.86 80.48 52.76Q80.83 52.66 81.02 52.57L81.02 52.57L81.02 44.05Q81.28 43.98 81.78 43.90Q82.27 43.83 82.84 43.83L82.84 43.83Q84.04 43.83 84.57 44.23Q85.10 44.62 85.10 45.75L85.10 45.75L85.10 53.17Q85.10 54.37 84.09 54.97L84.09 54.97Q83.25 55.50 82.09 55.77Q80.92 56.05 79.56 56.05L79.56 56.05Q78.26 56.05 77.17 55.76Q76.08 55.47 75.28 54.87Q74.49 54.27 74.06 53.32Q73.63 52.38 73.63 51.03L73.63 51.03ZM89.42 52.69L89.42 52.69Q89.16 52.09 88.86 51.34Q88.56 50.60 88.23 49.64Q87.91 48.68 87.56 47.44Q87.21 46.21 86.83 44.60L86.83 44.60Q87.16 44.26 87.73 44.01Q88.29 43.76 88.96 43.76L88.96 43.76Q89.80 43.76 90.36 44.11Q90.91 44.46 91.17 45.42L91.17 45.42Q91.65 47.10 92.12 48.74Q92.59 50.38 93.07 52.02L93.07 52.02L93.16 52.02Q93.45 51.20 93.73 50.24Q94.00 49.28 94.27 48.26Q94.53 47.24 94.76 46.22Q94.99 45.20 95.16 44.22L95.16 44.22Q95.56 44 96.00 43.88Q96.43 43.76 96.91 43.76L96.91 43.76Q97.75 43.76 98.37 44.12Q99.00 44.48 99.00 45.37L99.00 45.37Q99.00 46.33 98.70 47.66Q98.40 48.99 97.92 50.42Q97.44 51.85 96.84 53.22Q96.24 54.58 95.64 55.62L95.64 55.62Q94.27 57.97 93.13 59.08Q91.99 60.20 90.81 60.20L90.81 60.20Q89.85 60.20 89.20 59.60Q88.56 59 88.44 58.04L88.44 58.04Q89.20 57.39 89.97 56.58Q90.74 55.76 91.32 54.92L91.32 54.92Q90.91 54.80 90.44 54.36Q89.97 53.91 89.42 52.69Z" fill="#fff"></path></svg>