<?xml version="1.0" standalone="no"?>
<!DOCTYPE svg PUBLIC "-//W3C//DTD SVG 20010904//EN"
 "http://www.w3.org/TR/2001/REC-SVG-20010904/DTD/svg10.dtd">
<svg version="1.0" xmlns="http://www.w3.org/2000/svg"
 width="32.000000pt" height="32.000000pt" viewBox="0 0 32.000000 32.000000"
 preserveAspectRatio="xMidYMid meet">

<g transform="translate(0.000000,32.000000) scale(0.100000,-0.100000)"
fill="#000000" stroke="none">
<path d="M81 263 c1 -21 3 -30 6 -20 4 14 16 17 73 17 57 0 69 -3 73 -17 3
-10 5 -1 6 20 l1 37 -80 0 -80 0 1 -37z"/>
<path d="M74 195 l-27 -36 31 -32 c18 -17 32 -27 32 -21 0 6 -9 19 -20 29 -25
23 -25 33 2 62 12 13 19 25 16 29 -3 3 -18 -11 -34 -31z"/>
<path d="M210 224 c0 -6 9 -19 20 -29 11 -10 20 -23 20 -30 0 -7 -9 -20 -20
-30 -11 -10 -20 -23 -20 -28 0 -6 14 2 30 18 17 16 30 31 30 35 0 11 -59 75
-60 64z"/>
<path d="M81 63 l-1 -43 80 0 80 0 -1 43 c-1 23 -3 34 -6 25 -4 -15 -16 -18
-73 -18 -57 0 -69 3 -73 18 -3 9 -5 -2 -6 -25z m92 -20 c-7 -2 -19 -2 -25 0
-7 3 -2 5 12 5 14 0 19 -2 13 -5z"/>
</g>
</svg>
